<svg width="50" height="50" xmlns="http://www.w3.org/2000/svg">
 <g>
  <title>Layer 1</title>
  <g id="svg_1">
   <path d="m25,1.5c-12.958643,0 -23.5,10.543502 -23.5,23.5s10.541357,23.5 23.5,23.5s23.5,-10.543503 23.5,-23.5s-10.541359,-23.5 -23.5,-23.5zm0,44.76115c-11.723946,0 -21.261151,-9.538692 -21.261151,-21.261148s9.537206,-21.261153 21.261151,-21.261153s21.26115,9.538691 21.26115,21.261151s-9.537209,21.26115 -21.26115,21.26115z" id="svg_2" fill="#000000"/>
   <rect x="18.567101" y="22.76115" width="12.865961" height="4.477698" id="svg_3" fill="#000000"/>
   <path d="m9.894365,21.501549v0.454832c-0.168376,-0.102909 -0.352912,-0.173326 -0.561526,-0.173326c-0.618093,0 -1.117941,0.500677 -1.117941,1.117777v4.198172c0,0.617104 0.499848,1.117775 1.117941,1.117775c0.208614,0 0.39315,-0.070417 0.561526,-0.173323v0.454826c0,1.140371 0.855234,2.070639 1.957838,2.209166v-11.41506c-1.102604,0.138525 -1.957838,1.068794 -1.957838,2.209162z" id="svg_4" fill="#000000"/>
   <path d="m40.667164,21.783054c-0.208618,0 -0.393154,0.070417 -0.561363,0.173326v-0.454832c0,-1.140368 -0.855404,-2.070637 -1.95784,-2.209162v11.41539c1.102604,-0.138689 1.95784,-1.068794 1.95784,-2.209164v-0.454828c0.168377,0.102903 0.352913,0.173321 0.561363,0.173321c0.618088,0 1.117935,-0.500671 1.117935,-1.117775v-4.198172c0,-0.617428 -0.499847,-1.118105 -1.117935,-1.118105z" id="svg_5" fill="#000000"/>
   <path d="m15.208827,15.770352c-1.234697,0 -2.237199,1.002503 -2.237199,2.238687v13.981756c0,1.236183 1.002665,2.238686 2.237199,2.238686c1.236182,0 2.238851,-1.002502 2.238851,-2.238686v-13.981756c0,-1.236183 -1.002668,-2.238687 -2.238851,-2.238687z" id="svg_6" fill="#000000"/>
   <path d="m34.791168,15.770352c-1.236179,0 -2.23885,1.002503 -2.23885,2.238687v13.981756c0,1.236183 1.00267,2.238686 2.23885,2.238686c1.234699,0 2.237202,-1.002502 2.237202,-2.238686v-13.981756c0,-1.236183 -1.002502,-2.238687 -2.237202,-2.238687z" id="svg_7" fill="#000000"/>
  </g>
 </g>
</svg>