<svg width="300" height="300" xmlns="http://www.w3.org/2000/svg">
 <g>
  <title>Layer 1</title>
  <g id="svg_1">
   <path fill="#ffffff" id="svg_2" d="m150,7.5c-78.579002,0 -142.5,63.933998 -142.5,142.5s63.920998,142.5 142.5,142.5s142.5,-63.934006 142.5,-142.5s-63.921005,-142.5 -142.5,-142.5zm0,271.424011c-71.092003,0 -128.924,-57.841003 -128.924,-128.923996s57.831997,-128.924015 128.924,-128.924015s128.924011,57.841 128.924011,128.924s-57.832016,128.924011 -128.924011,128.924011z"/>
   <rect fill="#ffffff" id="svg_3" height="27.152" width="78.017" y="136.424" x="110.992"/>
   <path fill="#ffffff" id="svg_4" d="m58.402,128.785995v2.758011c-1.021,-0.624008 -2.139999,-1.05101 -3.404999,-1.05101c-3.748001,0 -6.779003,3.036011 -6.779003,6.778v25.457001c0,3.742004 3.031002,6.778 6.779003,6.778c1.264999,0 2.383999,-0.427002 3.404999,-1.050995v2.757996c0,6.915009 5.186001,12.556 11.872002,13.395996v-69.218994c-6.686001,0.840004 -11.872002,6.481003 -11.872002,13.395996z"/>
   <path fill="#ffffff" id="svg_5" d="m245.003006,130.492996c-1.264999,0 -2.384003,0.427002 -3.403992,1.05101v-2.758011c0,-6.914993 -5.187012,-12.555992 -11.872009,-13.395996v69.220993c6.686005,-0.840988 11.872009,-6.480988 11.872009,-13.395996v-2.757996c1.020996,0.623993 2.139999,1.050995 3.403992,1.050995c3.748001,0 6.779007,-3.035995 6.779007,-6.778v-25.457001c-0.000015,-3.743988 -3.031006,-6.779999 -6.779007,-6.779999z"/>
   <path fill="#ffffff" id="svg_6" d="m90.627998,94.032997c-7.487,0 -13.566002,6.079002 -13.566002,13.575005v84.78299c0,7.496002 6.080002,13.574997 13.566002,13.574997c7.496002,0 13.576004,-6.078995 13.576004,-13.574997v-84.78299c0,-7.496002 -6.080002,-13.575005 -13.576004,-13.575005z"/>
   <path fill="#ffffff" id="svg_7" d="m209.371994,94.032997c-7.496002,0 -13.576004,6.079002 -13.576004,13.575005v84.78299c0,7.496002 6.080002,13.574997 13.576004,13.574997c7.487,0 13.565994,-6.078995 13.565994,-13.574997v-84.78299c0.000015,-7.496002 -6.078995,-13.575005 -13.565994,-13.575005z"/>
  </g>
 </g>
</svg>